<svg id="Layer_1" data-name="Layer 1" xmlns="http://www.w3.org/2000/svg" viewBox="0 0 216 216"><defs><style>.cls-1,.cls-2{fill:#181818;}.cls-2{font-size:33.5px;font-family:Subwich-Bold, Subwich;font-weight:700;}.cls-3{letter-spacing:-0.02em;}.cls-4{fill:#b29a31;}</style></defs><title>snapshop</title><path class="cls-1" d="M37.27,83.51a7.33,7.33,0,0,1-4.45-1.23,5.93,5.93,0,0,1-1.38-1.4c-1.39-1.94-.79-5.63,1.24-6.72a10,10,0,0,1,4.39-1.36q63.42-.19,126.82-.26a12.09,12.09,0,0,0,3.77-.6A4.58,4.58,0,0,0,170.94,68c.21-1.91-.88-3.28-2.32-4.3L150.13,50.64q-7.08-5-14.16-10c-2.5-1.78-2.63-4.08-.39-6.21,3.31-3.13,7.25-3.41,10.94-.77q16.86,12,33.71,24c5.3,3.77,6.31,9.36,3.72,14.18a20.1,20.1,0,0,1-7.56,7.85,25.76,25.76,0,0,1-8.22,3.19,24.31,24.31,0,0,1-4.78.45Z"/><path class="cls-1" d="M108.26,103.58c-13.83,0-27.65,0-41.48,0a10,10,0,0,1-4.58-1.22c-3.61-2-3.66-6.16-.06-8.16a11.17,11.17,0,0,1,5.12-1.32c11.76-.15,23.52-.14,35.28-.17,15.7,0,31.41-.07,47.12,0a8.33,8.33,0,0,1,4.56.87c1.78,1,3.87,3.2,3.45,5.51a4.84,4.84,0,0,1-2,2.79c-1.65,1.37-3.82,1.71-6.1,1.71-13.78,0-27.56,0-41.34,0Z"/><path class="cls-1" d="M143.91,112.79a9.46,9.46,0,0,1,5.59,1.68c2.72,2,2.81,5.22.22,7.42a9.61,9.61,0,0,1-6.35,1.91c-23.14-.49-46.3.56-69.44,0a10.91,10.91,0,0,1-5.15-1.63c-3-1.89-2.91-5.5-.06-7.64a9.71,9.71,0,0,1,6-1.68C81.87,113.15,141.39,112.82,143.91,112.79Z"/><path class="cls-1" d="M110.2,144.23c-9.14,0-18.29.09-27.43-.08a10.28,10.28,0,0,1-5.12-1.76c-2.71-1.78-2.69-5.22-.18-7.32A8.43,8.43,0,0,1,83,133.2c3.54,0,7.08,0,10.62,0,14.11,0,28.22-.1,42.33-.07a22.3,22.3,0,0,1,5.68.79,6.37,6.37,0,0,1,2.69,1.9,4.15,4.15,0,0,1,0,5.64,8.38,8.38,0,0,1-6.73,2.78c-9.14.05-18.29,0-27.44,0Z"/><path class="cls-1" d="M111.53,31.86c.3-5.26.57-10.53.91-15.78a5.7,5.7,0,0,1,3.84-5.32,13.63,13.63,0,0,1,3.63-.74c3-.25,4.57,1.64,4.13,4.89s-.88,6.41-1.3,9.62c-1,7.51-2,15-3,22.54a4.1,4.1,0,0,1-3.37,3.68,4.76,4.76,0,0,1-5.21-1.26,3.28,3.28,0,0,1-.52-2.14c.24-5.17.54-10.33.83-15.5Z"/><path class="cls-1" d="M77.65,29.44a5.22,5.22,0,0,1,4,1.55c7,6.51,14,13,20.94,19.47,1.59,1.48,1.79,2.56.84,3.69-1.19,1.42-3.43,1.8-4.66.71Q91.35,48.2,83.94,41.48c-2.71-2.45-5.37-5-8.08-7.41a2.59,2.59,0,0,1,1.79-4.63Z"/><path class="cls-1" d="M93.77,59.83a6.64,6.64,0,0,1,3,.84,2.38,2.38,0,0,1,1,1.82A2.35,2.35,0,0,1,96.57,64a4.39,4.39,0,0,1-2.13.4c-2.74-.09-23.32-.89-25.06-.91a4.47,4.47,0,0,1-2.51-.78,2,2,0,0,1-1-1.42,1.88,1.88,0,0,1,.9-1.43,3,3,0,0,1,1.9-.46C70.27,59.48,90.31,60,93.77,59.83Z"/><path class="cls-1" d="M96.79,153.45a5.24,5.24,0,1,1-5.25-5.7A5.49,5.49,0,0,1,96.79,153.45Z"/><path class="cls-1" d="M124.94,153.35A5.25,5.25,0,1,1,130.2,159,5.5,5.5,0,0,1,124.94,153.35Z"/><text class="cls-2" transform="translate(25.97 204.58)">S<tspan class="cls-3" x="18.96" y="0">NA</tspan><tspan x="61.03" y="0">P</tspan><tspan class="cls-4" x="82" y="0">SHOP</tspan></text></svg>