<svg id="Layer_1" data-name="Layer 1" xmlns="http://www.w3.org/2000/svg" viewBox="0 0 216 216"><defs><style>.cls-1{fill:#e6e7e8;}</style></defs><title>snapshop</title><path class="cls-1" d="M15.86,106.69a9.65,9.65,0,0,1-5.79-1.61,8,8,0,0,1-1.81-1.82c-1.81-2.53-1-7.34,1.62-8.76a12.9,12.9,0,0,1,5.72-1.77q82.61-.26,165.21-.34a15.76,15.76,0,0,0,4.91-.78,6,6,0,0,0,4.27-5.1c.28-2.48-1.15-4.27-3-5.6q-12-8.53-24.09-17-9.23-6.52-18.45-13.07c-3.25-2.32-3.42-5.32-.5-8.09,4.31-4.08,9.44-4.44,14.25-1q22,15.63,43.91,31.27c6.91,4.91,8.22,12.2,4.85,18.46a26.13,26.13,0,0,1-9.84,10.24,33.56,33.56,0,0,1-10.72,4.15,31.08,31.08,0,0,1-6.22.59C178,106.41,18.85,106.67,15.86,106.69Z"/><path class="cls-1" d="M108.34,132.83c-18,0-36,0-54-.07a13.13,13.13,0,0,1-6-1.58c-4.7-2.55-4.76-8-.08-10.63a14.58,14.58,0,0,1,6.68-1.72c15.31-.2,30.63-.19,45.95-.22q30.7-.08,61.39,0a11,11,0,0,1,5.95,1.13c2.31,1.29,5,4.18,4.49,7.19a6.4,6.4,0,0,1-2.57,3.63c-2.15,1.78-5,2.22-7.95,2.23-17.95,0-35.9,0-53.85,0Z"/><path class="cls-1" d="M154.78,144.82a12.37,12.37,0,0,1,7.29,2.19c3.53,2.62,3.66,6.8.28,9.67-3,2.56-7.09,2.52-8.27,2.49-30.15-.64-60.32.73-90.47,0a14.49,14.49,0,0,1-6.71-2.13c-3.89-2.46-3.79-7.16-.07-9.95a12.6,12.6,0,0,1,7.84-2.19C74,145.29,151.5,144.86,154.78,144.82Z"/><path class="cls-1" d="M110.87,185.79c-11.91,0-23.83.11-35.74-.11a13.4,13.4,0,0,1-6.67-2.3c-3.53-2.31-3.5-6.8-.24-9.54a11,11,0,0,1,7.22-2.42c4.61,0,9.22,0,13.83-.06,18.39-.05,36.77-.13,55.15-.09a29,29,0,0,1,7.4,1,8.11,8.11,0,0,1,3.51,2.47,5.4,5.4,0,0,1,0,7.35c-2.32,2.74-5.45,3.59-8.75,3.61-11.92.07-23.83,0-35.75,0Z"/><path class="cls-1" d="M112.6,39.39c.39-6.85.74-13.71,1.19-20.55a7.41,7.41,0,0,1,5-6.93,17.6,17.6,0,0,1,4.73-1c3.92-.33,6,2.13,5.38,6.37s-1.15,8.35-1.7,12.53c-1.31,9.78-2.64,19.57-3.86,29.37C123,62.08,121.28,63.33,119,64a6.23,6.23,0,0,1-6.8-1.65,4.33,4.33,0,0,1-.67-2.79c.31-6.73.71-13.45,1.07-20.18Z"/><path class="cls-1" d="M68.46,36.25a6.8,6.8,0,0,1,5.25,2c9.07,8.48,18.2,16.9,27.28,25.37,2.07,1.93,2.33,3.33,1.1,4.8-1.56,1.85-4.48,2.35-6.08.92q-9.7-8.67-19.35-17.42c-3.53-3.2-7-6.47-10.53-9.66a3.37,3.37,0,0,1,2.33-6Z"/><path class="cls-1" d="M89.47,75.83a8.84,8.84,0,0,1,3.91,1.09A3.16,3.16,0,0,1,94.7,79.3c0,.69-.88,1.6-1.59,2a5.64,5.64,0,0,1-2.77.51c-3.58-.11-30.39-1.15-32.65-1.18a5.67,5.67,0,0,1-3.27-1,2.61,2.61,0,0,1-1.27-1.86,2.47,2.47,0,0,1,1.18-1.86,4,4,0,0,1,2.47-.6C58.84,75.38,85,76,89.47,75.83Z"/><path class="cls-1" d="M93.4,197.79c0,4-3.1,7.28-6.79,7.29s-6.87-3.37-6.83-7.42,3.1-7.28,6.78-7.3S93.43,193.73,93.4,197.79Z"/><path class="cls-1" d="M130.07,197.66c0-4,3.1-7.28,6.78-7.3s6.87,3.37,6.84,7.43a7.15,7.15,0,0,1-6.78,7.29C133.16,205.1,130,201.71,130.07,197.66Z"/></svg>